<svg version="1.2" xmlns="http://www.w3.org/2000/svg" viewBox="0 0 583 119" width="583" height="119">
	<title>Fostira logga vit-svg</title>
	<style>
		.s0 { fill: #333333 } 
		.s1 { fill: none } 
	</style>
	<g id="Layer">
		<path id="Layer" fill-rule="evenodd" class="s0" d="m291.1 118.1q-139.2 0-278.5 0c-5.7 0-10.2-3-11.9-8.1c-0.4-1.2-0.7-2.6-0.7-3.9q0-47 0-94.1c0-6.7 5.3-11.9 12.1-12q0.3 0 0.7 0q278.4 0 556.9 0c5.9 0 10.4 3 12.1 8.2c0.4 1.2 0.7 2.5 0.7 3.8q0 47 0 94c0 6.9-5.4 12.1-12.5 12.1q-115.4 0-230.8 0q-24 0-48.1 0zm211.3-27.4c0 0.8 0 1.5 0 2.4c0.6 0 1 0 1.4 0q18.8 0 37.6 0c1.2 0 2.4 0 3.6-0.3c8.8-1.7 15.3-6.6 18.8-15c1.3-2.9 2-5.9 1.8-9q0-20.7 0-41.4c-0.2 0-0.3 0-0.4 0c-13 0-26.1-0.1-39.1 0c-12.8 0.2-23.6 11-23.7 23.8c-0.2 13.2-0.1 26.3 0 39.5zm-162.5-72.7c0 27.4 0 54.7 0 82c5.2 0 10.3 0 15.5 0q0-16.1 0-31.9c6.1 0 12.2-0.4 18.2 0.1c5.9 0.3 8 2.8 8.4 8.7c0.3 3.5 0.3 7 0.4 10.4c0.1 4.3 0.5 8.6 1.8 12.7q8.7 0 17.3 0c0.2-1.2 0-2-0.9-2.9c-0.8-0.8-1.3-1.9-1.7-3c-0.3-1.2-0.4-2.5-0.5-3.8c-0.2-5.3-0.2-10.7-0.5-16c-0.4-6.1-3.1-10.7-8.8-13.3c-0.1 0-0.2-0.1-0.3-0.2c4.6-2.2 6.7-3.8 8.3-7c4.8-9.5 4.6-18.8-1.7-27.6c-2.7-3.9-6.5-6.5-11.2-7.3c-2.9-0.5-5.7-0.8-8.6-0.9c-11.5-0.1-23 0-34.4 0c-0.4 0-0.8 0-1.3 0zm-186.7 38.9c0-5-0.7-11.8-3.2-18.5c-3.1-8.3-8.3-14.9-16.2-19.1c-4.3-2.2-9-3.1-13.7-3.4c-6.3-0.3-12.5 0.2-18.3 2.7c-8.4 3.7-13.8 10.3-17.3 18.6c-3.3 8-3.9 16.5-3.6 25c0.2 7 1.3 13.8 4.3 20.1c3.9 8.2 9.4 14.7 18.1 17.7c9 3.1 18.1 3.1 27.1 0.1c8.7-2.8 14.3-9.3 18.2-17.3c3.6-7.5 4.6-15.6 4.6-25.9zm11.1 18c-0.1 0.2-0.1 0.4-0.1 0.6c-0.1 11.5 6.5 20.8 17.5 24.6c7.1 2.4 14.4 2.7 21.8 1.5c4.8-0.7 9.4-2.3 13.2-5.4c7.6-6.1 10.3-14.1 9.3-23.6c-0.9-8.3-5.4-13.9-13.2-16.9c-0.8-0.4-1.7-0.7-2.7-1c-4.7-1.3-9.4-2.5-14.2-3.8c-3.7-1.1-7.3-2.2-11-3.4c-2.4-0.9-4.1-2.6-4.7-5.2c-1.1-4.7 1.2-9.2 6-11c5-1.9 10-1.8 14.9 0.1c4.1 1.6 6.4 4.7 7.2 8.9c0.2 0.8 0.2 1.6 0.4 2.4c5 0 9.9 0 15 0c0-0.4 0-0.7 0-1c-0.4-11.2-6.5-19.7-17-23.7c-6.4-2.4-13-2.6-19.7-1.5c-4.6 0.7-8.8 2.2-12.4 5.1c-6 4.9-8.9 11.3-9.1 19c-0.2 3.9 0.3 7.8 1.9 11.4c2.2 5.3 6.4 8.6 11.8 10.3c5.7 1.9 11.6 3.4 17.5 4.9c3.7 1 7.4 1.9 10.8 3.9c2.1 1.3 3.4 3.2 3.5 5.8c0.3 5-2.1 8.6-7 10.2c-5.1 1.7-10.3 1.8-15.6 0.3c-4.4-1.2-7.2-4-8.4-8.5c-0.3-1.3-0.5-2.6-0.8-3.9c-5-0.1-10-0.1-14.9-0.1zm319.6 25.1q-13.4-41-26.7-82c-6 0-11.9 0-17.9 0c-8.9 27.4-17.9 54.7-26.9 82c5.6 0 11 0 16.5 0q2.5-8.2 5-16.4c9.4 0 18.7 0 28 0q2.5 8.2 4.9 16.4c5.7 0 11.3 0 17.1 0zm-413.4-81.9c-17.9 0-35.8 0-53.6 0c0 27.4 0 54.6 0 81.9c5.2 0 10.3 0 15.6 0c0-11.4 0-22.8 0-34.3c11.2 0 22.2 0 33.3 0c0-4.8 0-9.5 0-14.4q-16.7 0-33.3 0c0-6.3 0-12.6 0-18.9c12.7 0 25.3 0 38 0c0-4.8 0-9.6 0-14.3zm202.4 81.9c0-22.6 0-45.1 0-67.6c7.6 0 15 0 22.5 0c0-4.9 0-9.6 0-14.3q-30.6 0-61.1 0c0 4.8 0 9.5 0 14.4c7.6 0 15.1 0 22.7 0c0 22.5 0 45 0 67.5c5.3 0 10.5 0 15.9 0zm48.7 0c0-27.4 0-54.7 0-81.9q-7.8 0-15.5 0c0 27.3 0 54.6 0 81.9c5.2 0 10.3 0 15.5 0z" />
		<path id="Layer" class="s1" d="m502.4 90.7c0-13.2-0.2-26.3 0-39.5c0.1-12.8 10.9-23.6 23.7-23.8c13-0.1 26 0 39.1 0c0.1 0 0.2 0 0.4 0q0 20.7 0 41.4c0 0.2-0.1 0.5-0.2 0.8c-1.5 11.1-10.4 19.8-21.6 20.9c-4.7 0.4-9.4 0.2-14.1 0.2q-13.7 0-27.3 0z" />
		<path id="Layer" class="s1" d="m339.9 18c0.5 0 0.9 0 1.3 0c11.4 0 22.9-0.1 34.4 0c2.9 0.1 5.7 0.4 8.6 0.9c4.7 0.8 8.5 3.4 11.2 7.3c6.3 8.8 6.5 18.1 1.7 27.6c-1.6 3.2-3.7 4.8-8.3 7c0.1 0.1 0.2 0.2 0.3 0.3c5.7 2.5 8.4 7.1 8.8 13.2c0.3 5.3 0.3 10.7 0.5 16c0.1 1.3 0.2 2.6 0.5 3.8c0.4 1.1 0.9 2.2 1.7 3c0.9 0.9 1.1 1.7 0.9 2.9q-8.6 0-17.3 0c-1.3-4.1-1.7-8.4-1.8-12.7c-0.1-3.4-0.1-6.9-0.4-10.4c-0.4-5.9-2.5-8.4-8.4-8.7c-6-0.4-12.1-0.1-18.2-0.1q0 15.8 0 31.9c-5.2 0-10.3 0-15.5 0c0-27.3 0-54.6 0-82zm15.5 14.5c0.3 0 0.7-0.1 1-0.1c5.6 0 11.1 0 16.7 0c1.4 0.1 2.9 0.2 4.3 0.5c3.5 0.6 5.6 2.8 6.5 6.2c0.8 2.6 0.8 5.3 0.3 8c-0.9 4-3.5 6.3-7.8 6.9q-1.8 0.2-3.7 0.2c-5.7 0-11.5 0-17.3 0c0-7.3 0-14.5 0-21.7z" />
		<path id="Layer" class="s1" d="m153.2 56.9c0 10.3-1 18.4-4.6 25.9c-3.9 8-9.5 14.5-18.2 17.3c-9 3-18.1 3-27.1-0.1c-8.7-3-14.2-9.6-18.1-17.7c-3-6.3-4.1-13.1-4.3-20.1c-0.3-8.6 0.3-17 3.6-25.1c3.5-8.2 8.9-14.8 17.3-18.5c5.8-2.5 12-3 18.3-2.7c4.7 0.3 9.4 1.2 13.7 3.4c7.9 4.2 13.1 10.8 16.2 19.1c2.5 6.7 3.2 13.5 3.2 18.5zm-18.8 19.1c-2.6 5.7-6.5 9.9-12.9 11.4c-9.9 2.2-18.4-2.6-22.4-12.4c-1.5-3.8-2.3-7.8-2.5-11.9c-0.4-6.6-0.1-13.3 2.3-19.6c2.2-5.5 5.6-9.9 11.3-12c7.9-2.9 18.8-1.5 24.2 10.6c2.4 5.4 3 11.1 3.1 16.9c-0.1 5.9-0.7 11.6-3.1 17z" />
		<path id="Layer" class="s1" d="m164.3 74.9q7.4 0 14.8 0c0.3 1.4 0.6 2.7 0.9 4c1.2 4.5 4 7.3 8.4 8.5c5.2 1.4 10.5 1.3 15.6-0.3c4.9-1.6 7.2-5.2 7-10.2c-0.2-2.6-1.4-4.5-3.6-5.8c-3.3-2.1-7-2.9-10.7-3.9c-5.9-1.6-11.8-3.1-17.6-4.9c-5.3-1.7-9.5-5-11.8-10.3c-1.5-3.7-2-7.5-1.9-11.4c0.2-7.7 3.1-14.1 9.2-19c3.6-2.9 7.8-4.4 12.3-5.2c6.7-1 13.3-0.9 19.8 1.6c10.4 3.9 16.6 12.5 17 23.7c0 0.3 0 0.6 0 1c-5.1 0-10.1 0-15.1 0c-0.1-0.9-0.2-1.6-0.3-2.4c-0.8-4.3-3.1-7.4-7.2-8.9c-4.9-1.9-10-2-14.9-0.1c-4.8 1.8-7.1 6.2-6 11c0.6 2.6 2.3 4.3 4.7 5.2c3.6 1.2 7.3 2.3 11 3.3c4.7 1.4 9.5 2.6 14.2 3.9c0.9 0.2 1.8 0.6 2.7 1c7.7 3 12.2 8.6 13.1 16.9c1.1 9.4-1.7 17.5-9.2 23.5c-3.9 3.1-8.4 4.8-13.3 5.5c-7.3 1.1-14.6 0.9-21.7-1.6c-11-3.7-17.6-13-17.5-24.6q0-0.2 0-0.5z" />
		<path id="Layer" class="s1" d="m483.9 100c-5.8 0-11.4 0-17.1 0q-2.4-8.2-4.9-16.4c-9.3 0-18.6 0-28 0q-2.5 8.1-5 16.4c-5.5 0-10.9 0-16.5 0c9-27.3 18-54.6 26.9-82c6 0 11.9 0 17.9 0q13.3 41 26.7 82zm-45.6-30.9q4.8-16 9.7-32q0.1 0 0.2 0c3.1 10.6 6.3 21.3 9.5 32c-6.5 0-12.9 0-19.4 0z" />
		<path id="Layer" class="s1" d="m70.5 18.1c0 4.8 0 9.4 0 14.3c-12.6 0-25.3 0-38 0c0 6.3 0 12.6 0 18.9q16.6 0 33.3 0c0 4.9 0 9.6 0 14.4c-11.1 0-22.1 0-33.3 0c0 11.5 0 22.9 0 34.3c-5.3 0-10.4 0-15.6 0c0-27.3 0-54.6 0-81.9c17.8 0 35.7 0 53.6 0z" />
		<path id="Layer" class="s1" d="m272.9 100c-5.4 0-10.6 0-15.9 0c0-22.5 0-45 0-67.5c-7.6 0-15.1 0-22.7 0c0-4.9 0-9.6 0-14.4q30.5 0 61.1 0c0 4.7 0 9.4 0 14.3c-7.4 0-14.9 0-22.5 0c0 22.6 0 45 0 67.6z" />
		<path id="Layer" class="s1" d="m321.6 100c-5.2 0-10.3 0-15.5 0c0-27.3 0-54.6 0-81.9q7.7 0 15.5 0c0 27.3 0 54.6 0 82z" />
		<path id="Layer" class="s0" d="m502.4 90.7c9.1 0 18.2 0 27.3 0c4.7 0 9.4 0.2 14.1-0.2c11.2-1.1 20.1-9.8 21.6-20.9c0.1-0.3 0.2-0.6 0.2-0.8c0.2 3.1-0.5 6.1-1.8 9c-3.5 8.4-9.9 13.3-18.8 15c-1.2 0.3-2.4 0.3-3.6 0.3q-18.8 0-37.6 0c-0.4 0-0.8 0-1.4 0c0-0.9 0-1.6 0-2.4z" />
		<path id="Layer" class="s0" d="m355.4 54.2c0-7.3 0-14.5 0-21.7c0.4-0.1 0.7-0.1 1-0.1c5.6 0 11.2 0 16.7 0c1.4 0 2.9 0.2 4.3 0.4c3.5 0.7 5.6 2.9 6.5 6.2c0.8 2.7 0.8 5.4 0.3 8.1c-0.8 4-3.5 6.3-7.8 6.8q-1.8 0.3-3.7 0.3c-5.7 0-11.5 0-17.3 0z" />
		<path id="Layer" class="s0" d="m137.5 59c-0.1 5.9-0.7 11.6-3.1 17c-2.6 5.7-6.6 9.9-12.9 11.3c-9.9 2.3-18.4-2.5-22.4-12.3c-1.5-3.8-2.3-7.8-2.5-11.9c-0.4-6.7-0.1-13.3 2.3-19.6c2.1-5.5 5.5-9.9 11.3-12c7.9-3 18.8-1.5 24.2 10.6c2.4 5.4 3 11.1 3.1 16.9z" />
		<path id="Layer" class="s0" d="m457.6 69.1c-6.4 0-12.8 0-19.3 0c3.2-10.7 6.4-21.3 9.7-31.9q0.1 0 0.2 0c3.1 10.5 6.3 21.2 9.4 31.9z" />
	</g>
</svg>